Disc 7 Of 9

28.Les Dogs                                      : 720x554 27m 31s
29.Red Nose Of Courage                           : 720x554 50m 41s
30.The Crying Game                               : 720x554 33m 42s 
31.Wild Turkey                                   : 720x554 27m 44s
32.Detectives On The Edge Of A Nervous Breakdown : 720x552 31m 48s
33.Space Virgins From Planet Sex                 : 720x562 31m 19s

Note. Video/Audio Bitrate varies slightly in all 6 clips

Format                                   : MPEG-4
File size                                : 1.52 GiB
Duration                                 : 3h 22mn 47s
Overall bit rate mode                    : Variable
Overall bit rate                         : 1 076 Kbps

Video
Format settings, CABAC                   : Yes
Format settings, ReFrames                : 1 frame
Codec ID                                 : avc1
Duration                                 : 3h 22mn 47s
Bit rate mode                            : Variable
Bit rate                                 : 999 Kbps
Frame rate mode                          : Constant
Frame rate                               : 25.000 fps
Bit depth                                : 8 bits
Scan type                                : Progressive
Bits/(Pixel*Frame)                       : 0.100
Stream size                              : 1.413 GiB (93%)
Writing library                          : x264 core

Audio
Format                                   : AAC
Duration                                 : 3h 22mn 47s
Bit rate mode                            : Variable
Bit rate                                 : 72.4 Kbps
Maximum bit rate                         : 84.6 Kbps
Channel(s)                               : 2 channels
Channel positions                        : Front: L R
Sampling rate                            : 48.0 KHz
Compression mode                         : Lossy
Stream size                              : 107 MiB (7%)
Language                                 : English
Subtitles                                : None

IMDB.  http://www.imdb.com/title/tt0083402/

Screens.  http://bayimg.com/bANggaAEd

          http://bayimg.com/baNGHaAEd

          http://bayimg.com/BAnGJaaED

          http://bayimg.com/BanGkaaED

          http://bayimg.com/bAnGlaaed

          http://bayimg.com/bANgMAAeD  

Enjoy.